<svg width="0" height="0" class="hidden">
  <symbol version="1.1" id="badge1" xmlns="http://www.w3.org/2000/svg" xmlns:xlink="http://www.w3.org/1999/xlink" x="0px" y="0px" xml:space="preserve" viewBox="0 0 180.7 180.7">
    <g>
      <g>
        <g>
          <path d="M103,141.1c0,2.8-3.6,6.1-6.6,6c-3.1-0.1-6.2-3.4-6-6.4c0.2-3.2,3.3-6,6.6-5.9
				C100.3,134.9,103,137.7,103,141.1z"></path>
          <path d="M74.9,141.1c-0.1,3-3.5,6.1-6.5,6c-3.1-0.1-6.2-3.4-6.2-6.4c0-3,3.3-6,6.5-5.9
				C71.8,134.8,75,138,74.9,141.1z"></path>
          <path d="M160.2,108.3c-0.4-1.7-1-3.3-1.7-5c-0.5-1.2-1.4-2-2.9-1.6c-1,0.2-2,0.3-2.9,0.8c-3.4,1.9-5.5,0.3-7.5-2.4
				c-3.1-4.2-6.2-8.4-9.7-12.3c-2.4-2.7-2.9-5.4-2.7-8.9c1.3-15.4-4.8-28.1-15.2-39.1c-5.2-5.5-10.8-10.3-17.3-14.1
				c-2.9-1.7-5-3.8-5-7.6c0-3-0.8-3.4-3.7-3.5c-7.4-0.4-8.1,0.2-8.2,7.7c0,5.7,0,11.5-0.1,17.2c-0.1,3.1-0.9,3.7-3.6,2.7
				c-6.2-2.5-12.4-5.1-18.6-7.7c-2.7-1.1-5.3-4.1-8.1-2.7c-2.6,1.3-2.7,5.1-4,7.7c-0.3,0.6-0.3,1.4-0.5,2.2c0.9,0.5,1.8,1,2.7,1.5
				c3.7,2.3,3.7,2.6,2.2,6.5C49.3,61.1,45,72.5,40.7,83.9c-1.3,3.6-0.9,4.1,3.1,4.3c1.2,0,2.5-0.1,3.7,0c3.3,0.3,5-1.1,5.9-4.3
				c0.8-2.8,2.3-5.5,3.4-8.3C59.9,67.8,63,59.9,66,52c0.6-1.4,1.7-1.8,3-1.2c3.4,1.5,6.7,3.4,10.1,4.7c3.2,1.2,4.6,3,4.5,6.6
				c-0.2,16.2-0.1,32.4-0.1,48.6c0,1,0,2-0.2,3c-0.1,1.1-0.8,1.9-1.9,1.9c-5.5,0.1-11,0-16.4,0c-1.5,0-2.2-1-2.3-2.4
				c-0.1-4.2-0.1-8.5-0.2-12.7c-0.1-2.3-0.9-3.1-3.3-3.1c-12-0.1-23.9-0.1-35.9,0c-2.4,0-3.3,0.8-3.3,3c0,11.5-0.2,22.9,0.2,34.4
				c0.2,6.6,2.8,12.6,7.9,17.2c3.9,3.5,7.8,7,11.3,10.8c2.4,2.6,5.1,3.4,8.5,3.4c20.7-0.1,41.4,0,62.1-0.1c4,0,8-0.2,11.9-0.3
				c2.5-3.2,3.7-7,5.3-10.6c0.5-1.1,1.2-2.2,1.7-3.3c3-7.1,6.7-13.9,9.3-22.7c-5,1.6-8.7,2.8-12.5,4c-1.9,0.6-2.8,1.9-3.5,3.6
				c-1.8,4.1-3.9,8.1-5.4,12.3c-1.3,3.4-3.4,4.2-6.8,4.2c-17.9-0.1-35.9-0.1-53.9-0.1c-10,0-10,0-17-6.9c-0.4-0.4-0.6-0.8-1-1.1
				c-3.9-3.5-5.9-8.1-6.1-13.2c-0.3-6.5-0.1-13-0.1-19.4c0-1.7,1-2.8,2.8-2.8c4-0.1,8-0.1,12,0c3,0.1,3.6,0.6,3.7,3.4
				c0.2,4,0.1,8,0.2,12c0.1,2.1,1.2,3.1,3.3,3.3c2,0.2,4,0.1,6,0.1c14.5,0,28.9,0,43.4,0c5.5,0,10.7-0.5,16.1-2.4
				c12.4-4.5,25-8.4,37.5-12.5C160.8,112.4,161.2,111.7,160.2,108.3z M132.8,109.1c-7.1,2.2-14.3,4.3-21.4,6.5c-0.9,0.3-2,0.3-3,0.3
				c-15.3-0.3-12.6,2.6-12.8-12.3c-0.1-9,0-18,0-26.9c0-10.2,0-20.4,0-30.7c0-2,0-4,0.2-6c0.1-1.2,1.1-1.5,2.2-1
				c0.9,0.4,1.8,0.9,2.6,1.5c8.6,7,15.7,15.2,19.1,26.1c0.3,0.9,0.5,1.9,0.7,2.9c1.7,10,0.6,16.9-11.1,23.6
				c-3.2,1.8-4.9,3.4-4.7,7.3c0.2,7.1,0.6,7.6,7.1,4.9c4.4-1.8,8.5-4,12-7.4c1.9-1.9,2.7-1.8,4.2,0c2.1,2.5,4.1,5,6.1,7.6
				C135,106.8,134.4,108.6,132.8,109.1z"></path>
        </g>
      </g>
    </g>
  </symbol>
  <symbol version="1.1" id="badge2" xmlns="http://www.w3.org/2000/svg" xmlns:xlink="http://www.w3.org/1999/xlink" x="0px" y="0px" xml:space="preserve" viewBox="0 0 180.7 180.7">
    <g>
      <g>
        <g>
          <g>
            <path d="M104.9,67c0.3,0.1,0,0.1-0.2-0.1c-8.5-7.2-8.6-7.7-1-15.3c5.5-5.5,11-10.8,16.4-16.3
					c1.4-1.4,1-2.7-0.8-3.4c-6.8-2.6-14-3.5-21.2-4.2c-11.3-1.1-22.4,0.3-33.3,2.9c-1.2,0.3-2.3,0.8-3.5,1.3c-1.3,0.5-1.6,1.9-0.6,3
					c1.3,1.5,2.6,3,4,4.4c7.4,7.4,14.8,14.8,22.2,22.2c1.1,1.1,2.1,2.2,3,3.3c0.5,0.6,0.3,1.6-0.5,1.8C85.3,68,81,68.1,76.8,68
					c-0.8,0-1.8-0.9-2.4-1.5c-1.9-1.9-3.7-4-5.6-6c-6.6-6.7-13.2-13.5-20.1-20c-2.6-2.5-3.9-5-3.5-8.5c0.1-1,0.1-2,0-3
					c-0.1-2.6,1.2-4.2,3.5-5.1c2.1-0.9,4.1-1.8,6.2-2.6c10.6-3.9,21.7-5.3,32.9-6.4c3.2-0.3,6.4,0.3,9.6,0.7
					c11.6,1.4,23.2,3.2,34,7.9c3,1.3,4.4,2.9,4.1,6.1c-0.2,1.7,0,3.5-0.1,5.2c0,1.6-0.5,3-1.7,4.1C124.2,48.2,114.6,57.5,104.9,67z"></path>
          </g>
          <g>
            <g>
              <path d="M97.5,121.2c0-6,0.1-11.9,0-17.9c0-2.7-1-3.5-3.7-3.6c-3-0.1-6-0.1-9-0.1c-6.5,0.1-6.8,0.4-6.7,6.8
						c0,0.5,0,1,0,1.5c0.1,3.1,0.1,3.1,3.2,3.9c3.6,1,3.8,1,3.8,4.3c0.1,6.2,0,12.4,0,18.7c0,8.5-0.5,7.9,8.3,7.8
						c3.1,0,3.9-0.9,4-4.1C97.6,132.7,97.5,126.9,97.5,121.2C97.5,121.2,97.5,121.2,97.5,121.2z"></path>
              <path d="M90.1,76.3C66,75.9,45.3,95.7,45.3,120.8c-0.1,25.8,20.3,45.4,45,45.2c26.3-0.3,44.9-20.4,44.9-44.7
						C135.1,96.3,115.8,75.9,90.1,76.3z M90,153.4c-17.6,0.7-32.4-14.1-32.5-31.8c-0.1-19.4,15.3-32.6,32.3-33.2
						c14.1-0.5,32.9,11.5,32.9,32.6C122.7,140.8,106.4,154.1,90,153.4z"></path>
            </g>
          </g>
        </g>
      </g>
    </g>
  </symbol>
  <symbol version="1.1" id="badge3" xmlns="http://www.w3.org/2000/svg" xmlns:xlink="http://www.w3.org/1999/xlink" x="0px" y="0px" enable-background="new 0 0 1010 1010" xml:space="preserve" viewBox="0 0 1010 1010">
    <g id="quality-badge-quality-badge">
      <circle id="quality-badge-label" fill="#FC6E51" cx="505" cy="505" r="505"></circle>
      <g id="quality-badge-quality-badge_1_">
        <g>
          <path fill="#FFB933" d="M518.7891,254.0781l18.2275-8.5908c12.8516-6.0561,28.1689-3.0186,37.7266,7.5059l13.5518,14.9033
				c6.4903,7.1411,15.8311,10.9975,25.4678,10.5439l20.1211-0.957c14.2031-0.6704,27.1728,7.999,31.9766,21.374l6.8251,18.9571
				c3.2647,9.0937,10.4161,16.2353,19.5,19.5l18.9473,6.8251c13.3848,4.8038,22.0547,17.7735,21.3838,31.9766l-0.957,20.1211
				c-0.4639,9.6367,3.4033,18.9771,10.5439,25.4673l14.9033,13.5522c10.5245,9.5577,13.5616,24.875,7.5059,37.7266l-8.5908,18.2275
				c-4.1035,8.7393-4.1035,18.8389,0,27.5782l8.5908,18.2265c6.0557,12.8526,3.0186,28.1699-7.5059,37.7276l-14.9033,13.5517
				c-7.1406,6.4903-11.0078,15.8311-10.5439,25.4668l0.957,20.1211c0.6709,14.2031-7.999,27.1738-21.3838,31.9776l-18.9473,6.8251
				c-9.0839,3.2647-16.2353,10.4161-19.5,19.5l-6.8251,18.9473c-4.8038,13.3848-17.7735,22.0547-31.9766,21.3828l-20.1211-0.9561
				c-9.6367-0.4639-18.9775,3.4033-25.4678,10.5439l-13.5518,14.9033c-9.5577,10.5245-24.875,13.5616-37.7266,7.5059
				l-18.2275-8.5908c-8.7393-4.1035-18.8389-4.1035-27.5782,0l-18.227,8.5908c-12.8521,6.0557-28.1694,3.0186-37.7271-7.5059
				l-13.5522-14.9033c-6.4898-7.1406-15.8306-11.0078-25.4668-10.5439l-20.1211,0.9561
				c-14.2031,0.6719-27.1733-7.998-31.9771-21.3828l-6.8251-18.9473c-3.2647-9.0839-10.4058-16.2353-19.5-19.5l-18.9571-6.8251
				c-13.3745-4.8038-22.0444-17.7745-21.3735-31.9776l0.9565-20.1211c0.4541-9.6357-3.4028-18.9765-10.5439-25.4668
				l-14.9034-13.5517c-10.524-9.5577-13.5718-24.875-7.5059-37.7276l8.5908-18.2265c4.1035-8.7393,4.1035-18.8389,0-27.5782
				l-8.5908-18.2275c-6.0659-12.8516-3.0181-28.1689,7.5059-37.7266l14.9034-13.5522c7.1411-6.4902,10.998-15.8306,10.5439-25.4673
				l-0.9565-20.1211c-0.6709-14.2031,7.999-27.1728,21.3735-31.9766l18.9571-6.8251c9.0942-3.2647,16.2353-10.4063,19.5-19.5
				l6.8251-18.9571c4.8038-13.375,17.774-22.0444,31.9771-21.374l20.1211,0.957c9.6362,0.4536,18.977-3.4028,25.4668-10.5439
				l13.5522-14.9033c9.5577-10.5245,24.875-13.562,37.7271-7.5059l18.227,8.5908
				C499.9502,258.1812,510.0498,258.1812,518.7891,254.0781z"></path>
          <path fill="#454545" d="M550.7954,777.7002c-6.293,0-12.3784-1.3613-18.0845-4.0537l-18.2275-8.5918
				c-5.9668-2.8008-12.9849-2.8105-18.9814,0.0098l-18.2129,8.582c-16.5157,7.8017-37.2535,3.6387-49.5088-9.8535l-13.5469-14.8936
				c-4.207-4.626-10.1938-7.2793-16.4424-7.2793l-23.2129,1.0361c-17.8574,0-33.9101-11.2939-39.9463-28.1113l-6.8203-18.9375
				c-2.2539-6.2822-7.1416-11.165-13.4092-13.414l-18.9672-6.835c-17.6553-6.332-28.9244-23.1982-28.0415-41.9482l0.957-20.1309
				c0.3154-6.6582-2.3281-13.0391-7.2451-17.5078l-14.9082-13.5518c-13.9024-12.6347-17.8623-32.5293-9.8433-49.5136l8.5859-18.2276
				c2.8306-6.0166,2.8306-12.9404-0.0048-18.9765l-8.5865-18.2081c-8.0136-16.9843-4.0537-36.8789,9.8535-49.5136l14.8984-13.5523
				c4.9219-4.4682,7.5654-10.8496,7.25-17.5171l-0.957-20.1113c-0.8829-18.7598,10.3862-35.626,28.0512-41.9683l18.9473-6.8154
				c6.2778-2.2588,11.1655-7.1411,13.4141-13.414l6.8305-18.9673c6.0313-16.7969,22.084-28.0904,39.9414-28.0904l23.1885,1.0357
				c6.2632,0,12.2647-2.6533,16.4619-7.2793l13.5567-14.9033c12.2456-13.4732,32.9834-17.6358,49.5039-9.8438l18.2275,8.5908
				c5.9673,2.8018,12.9849,2.8116,18.9819-0.0097l18.2124-8.5811c16.5362-7.792,37.2588-3.6396,49.5088,9.8535l13.5469,14.8936
				c4.2022,4.626,10.2041,7.2793,16.4668,7.2793l23.1885-1.0357c17.8574,0,33.9101,11.2935,39.9414,28.1001l6.8262,18.9478
				c2.2538,6.2729,7.1406,11.165,13.414,13.4141l18.9521,6.8354c17.6601,6.332,28.9336,23.1982,28.0507,41.9482l-0.956,20.1309
				c-0.3213,6.648,2.3223,13.0293,7.2441,17.5073l14.9082,13.5523c13.8926,12.625,17.8526,32.5195,9.8487,49.5136l-8.5909,18.2276
				c-2.831,6.0166-2.831,12.9404,0.0049,18.9765l8.586,18.2081c8.0039,16.9941,4.0439,36.8886-9.8535,49.5136l-14.8985,13.5518
				c-4.9267,4.4785-7.5703,10.8594-7.249,17.5078l0.956,20.1211c0.8829,18.7598-10.3906,35.626-28.0615,41.9678l-18.9375,6.8154
				c-6.2773,2.2588-11.164,7.1514-13.4178,13.4141l-6.8262,18.957c-6.0313,16.7978-22.084,28.1015-39.9414,28.1015l-23.2129-1.0361
				c-6.2481,0-12.2354,2.6533-16.4375,7.2793l-13.5567,14.9033C574.1963,772.6299,562.7446,777.7002,550.7954,777.7002
				L550.7954,777.7002z M505,742.7441c6.209,0,12.4575,1.3907,18.0796,4.0342l18.2417,8.6006
				c8.6699,4.0938,19.5293,1.9043,25.9458-5.1582l13.5571-14.9131c8.0186-8.8271,19.46-13.8877,31.3848-13.8877l23.2129,1.0352
				c9.3554,0,17.7695-5.9278,20.9297-14.7354l6.8311-18.957c4.2959-11.9541,13.626-21.2852,25.585-25.585l18.9424-6.8163
				c9.2714-3.333,15.1796-12.1709,14.7158-22.0039l-0.9561-20.1113c-0.6064-12.6943,4.4336-24.876,13.8428-33.4277l14.8984-13.5518
				c7.2891-6.6182,9.3604-17.0439,5.1641-25.9502l-8.5918-18.2168c-5.3994-11.5107-5.3994-24.6885-0.0039-36.1797l8.5957-18.2461
				c4.1963-8.8965,2.125-19.3222-5.1592-25.9414l-14.9081-13.5517c-9.4044-8.5513-14.4443-20.7325-13.838-33.4268l0.9561-20.1211
				c0.4638-9.8232-5.4444-18.6611-14.7051-21.9849l-18.958-6.8354c-11.959-4.2905-21.29-13.6211-25.585-25.585l-6.8203-18.9477
				c-3.166-8.8179-11.5801-14.7359-20.9355-14.7359l-23.1885,1.0362c-11.9443,0-23.3906-5.0703-31.4141-13.8877l-13.5473-14.9033
				c-6.4214-7.0723-17.2808-9.2618-25.9507-5.1685l-18.2271,8.5908c-11.2739,5.3062-24.9292,5.2964-36.1733,0.0098l-18.2422-8.6006
				c-8.6699-4.0933-19.5391-1.9038-25.9453,5.1587l-13.5576,14.9131c-8.0186,8.8174-19.4649,13.8877-31.4092,13.8877
				l-23.1885-1.0362c-9.3554,0-17.7685,5.918-20.935,14.7261l-6.8257,18.9673c-4.2949,11.9541-13.6211,21.2847-25.5899,25.585
				l-18.9472,6.8154c-9.2666,3.334-15.1699,12.1719-14.7061,22.0054l0.9566,20.1108c0.5966,12.7041-4.4488,24.8853-13.8433,33.4268
				l-14.8984,13.5517c-7.2939,6.6192-9.3652,17.0449-5.1685,25.9414l8.5962,18.2266c5.3999,11.5107,5.3999,24.6885,0.0049,36.1787
				l-8.5957,18.2471c-4.2021,8.8965-2.1309,19.3221,5.1582,25.9404l14.9082,13.5518c9.3896,8.542,14.435,20.7236,13.8384,33.4179
				l-0.9566,20.1309c-0.4638,9.8232,5.4395,18.6611,14.6963,21.9844l18.9668,6.8359c11.9541,4.29,21.2803,13.6113,25.5801,25.585
				l6.8257,18.9375c3.1665,8.8271,11.5796,14.7451,20.935,14.7451l23.2129-1.0352c11.9248,0,23.3662,5.0606,31.3902,13.8877
				l13.5473,14.9033c6.4209,7.0723,17.2803,9.2617,25.9502,5.168l18.2276-8.5908C492.543,744.1348,498.791,742.7441,505,742.7441
				L505,742.7441z"></path>
        </g>
        <g>
          <g>
            <path fill="#FFFFFF" d="M631.25,504.2012C631.25,580,574.7236,641.4287,505,641.4287S378.75,580,378.75,504.2012
					c0-75.7798,56.5264-137.208,126.25-137.208S631.25,428.4214,631.25,504.2012z"></path>
            <path fill="#454545" d="M505,651.5293c-75.1826,0-136.3496-66.0938-136.3496-147.3281
					c0-81.2246,61.167-147.3086,136.3496-147.3086s136.3496,66.084,136.3496,147.3086
					C641.3496,585.4355,580.1826,651.5293,505,651.5293L505,651.5293z M505,377.0928c-64.0469,0-116.1499,57.0195-116.1499,127.1084
					c0,70.0976,52.103,127.1279,116.1499,127.1279c64.0474,0,116.1504-57.0303,116.1504-127.1279
					C621.1504,434.1123,569.0474,377.0928,505,377.0928L505,377.0928z"></path>
          </g>
          <g>
            <path fill="#454545" d="M614.4922,653.1074c-2.584,0-5.168-0.9863-7.1406-2.959l-80.2281-80.2089
					c-3.9453-3.9454-3.9453-10.336,0-14.2813c3.9453-3.9453,10.3365-3.9453,14.2818,0l80.2275,80.208
					c3.9453,3.9453,3.9453,10.3369,0,14.2822C619.6602,652.1211,617.0762,653.1074,614.4922,653.1074L614.4922,653.1074z"></path>
          </g>
        </g>
      </g>
    </g>
  </symbol>
  <symbol id="badge4" enable-background="new 0 0 511.943 511.943" xmlns="http://www.w3.org/2000/svg" viewBox="0 0 511.943 511.943">
    <g>
      <path d="m127.219 302.052-78.408 160.056 60.607 4.61 41.019 45.225 69.996-142.588z" fill="#ff3838"></path>
      <path d="m384.724 302.052-93.214 67.303 69.996 142.588 41.019-45.225 60.607-4.61z" fill="#ff3838"></path>
      <path d="m384.724 302.052-93.214 67.303 69.996 142.588 41.019-45.225 60.607-4.61z" fill="#c30047"></path>
      <path d="m420.692 57.214c-23.276 0-42.214-18.937-42.214-42.214v-15h-245.013v15c0 23.277-18.938 42.214-42.214 42.214h-15v153.889c0 76.962 45.847 145.956 116.8 175.77l62.921 26.439 62.921-26.439c70.953-29.814 116.8-98.808 116.8-175.77v-153.889z" fill="#ffd321"></path>
      <path d="m420.692 57.214c-23.276 0-42.214-18.937-42.214-42.214v-15h-122.507v413.312l62.921-26.439c70.953-29.814 116.8-98.808 116.8-175.77v-153.889z" fill="#ffaf00"></path>
      <path d="m357.34 108.677c-11.144 0-20.209-9.066-20.209-20.209v-15h-162.319v15c0 11.143-9.065 20.209-20.209 20.209h-15v100.471c0 49.691 29.601 94.236 75.412 113.486l40.956 17.21 40.956-17.21c45.812-19.25 75.412-63.795 75.412-113.486v-100.471z" fill="#fff16b"></path>
      <path d="m357.34 108.677c-11.144 0-20.209-9.066-20.209-20.209v-15h-81.159v266.376l40.956-17.21c45.812-19.25 75.412-63.795 75.412-113.486v-100.471z" fill="#ffd321"></path>
      <g>
        <path d="m288.95 244.01-32.989-17.297-32.991 17.296 6.255-36.72-26.642-26.03 36.854-5.399 16.524-33.383 16.523 33.383 36.856 5.399-26.645 26.031z" fill="#ffd321"></path>
      </g>
      <path d="m282.695 207.29 26.645-26.031-36.856-5.399-16.513-33.361v84.22l32.979 17.291z" fill="#ffaf00"></path>
    </g>
  </symbol>
</svg>